# xmcd
# 
# Track frame offsets:
#     182
#     17657
#     37345
#     54857
#     71807
#     93432
#     112607
#     130850
#     152207
#     171830
#     186240
# 
# Disc length: 2756
# 
# Revision: 2
# Processed by: cddbd v1.5.2PL0 Copyright (c) Steve Scherf et al.
# Submitted via: fre:ac v1.0.31
# 
DISCID=8f0ac20b
DTITLE=Hanne Haller - Liebe U.S.W.
DYEAR=0
DGENRE=
TTITLE0=C´est La Vie (Gefühle Im Bauch)
TTITLE1=Hilf Mir Durch Diese Nacht
TTITLE2=Heimweh Nach Mir
TTITLE3=Später, Stefanie
TTITLE4=Samstag Abend
TTITLE5=Immer Montags
TTITLE6=Etwas Sehnsucht
TTITLE7=Keine Besonderen Vorkommnisse
TTITLE8=Irgendwie Und Irgendwann
TTITLE9=Liebe U.S.W
TTITLE10=Umarme Mich
EXTD=
EXTT0=
EXTT1=
EXTT2=
EXTT3=
EXTT4=
EXTT5=
EXTT6=
EXTT7=
EXTT8=
EXTT9=
EXTT10=
PLAYORDER=
